<svg xmlns="http://www.w3.org/2000/svg" fill="none" viewBox="0 0 972 190"><g clip-path="url(#a)"><path fill="#091E2A" d="M12 190a12 12 0 0 1-12-12V12A12 12 0 0 1 12 0h948a12 12 0 0 1 12 12v166a12 12 0 0 1-12 12H12Z"/><g filter="url(#b)" opacity=".4"><ellipse cx="56.5" cy="136" fill="#D05AF6" rx="170.5" ry="77"/></g><g filter="url(#c)"><ellipse cx="795.5" cy="182.5" fill="#1797CC" rx="170.5" ry="56.5"/></g></g><defs><filter id="b" width="581" height="394" x="-234" y="-61" color-interpolation-filters="sRGB" filterUnits="userSpaceOnUse"><feFlood flood-opacity="0" result="BackgroundImageFix"/><feBlend in="SourceGraphic" in2="BackgroundImageFix" result="shape"/><feGaussianBlur result="effect1_foregroundBlur_3868_29124" stdDeviation="60"/></filter><filter id="c" width="581" height="353" x="505" y="6" color-interpolation-filters="sRGB" filterUnits="userSpaceOnUse"><feFlood flood-opacity="0" result="BackgroundImageFix"/><feBlend in="SourceGraphic" in2="BackgroundImageFix" result="shape"/><feGaussianBlur result="effect1_foregroundBlur_3868_29124" stdDeviation="60"/></filter><clipPath id="a"><path fill="#fff" d="M12 190a12 12 0 0 1-12-12V12A12 12 0 0 1 12 0h948a12 12 0 0 1 12 12v166a12 12 0 0 1-12 12H12Z"/></clipPath></defs></svg>