<svg xmlns="http://www.w3.org/2000/svg" fill="none" viewBox="0 0 596 381"><mask id="a" width="596" height="380" x="0" y="1" maskUnits="userSpaceOnUse" style="mask-type:alpha"><path fill="#C4C4C4" d="M0 1h596v380H0z" opacity=".8"/></mask><g fill="#CAFAFF" mask="url(#a)"><path d="M45.8 21.3a3.6 3.6 0 1 1 0-7.2 3.6 3.6 0 0 1 0 7.2ZM550.5 249a3.6 3.6 0 1 0 0-7.2 3.6 3.6 0 0 0 0 7.1ZM300.1 38.5a3.6 3.6 0 1 1 0-7.2 3.6 3.6 0 0 1 0 7.2ZM397.6 252.5a3.6 3.6 0 1 0 0-7.1 3.6 3.6 0 0 0 0 7.1ZM454.4 227.8a3.6 3.6 0 1 0 0-7.1 3.6 3.6 0 0 0 0 7.1ZM431 214.8a3.6 3.6 0 1 0 0-7.1 3.6 3.6 0 0 0 0 7.1ZM134.8 97.6a3.6 3.6 0 1 1 0-7.2 3.6 3.6 0 0 1 0 7.2ZM173.8 148a3.6 3.6 0 1 1 0-7.2 3.6 3.6 0 0 1 0 7.1ZM461.5 325.3a3.6 3.6 0 1 0 0-7.2 3.6 3.6 0 0 0 0 7.2ZM213 74.9a3.6 3.6 0 1 1 0-7.2 3.6 3.6 0 0 1 0 7.2ZM383.3 302.5a3.6 3.6 0 1 0 0-7.1 3.6 3.6 0 0 0 0 7.1ZM370.3 71.3a3.6 3.6 0 1 1 0-7.2 3.6 3.6 0 0 1 0 7.2ZM226 299a3.6 3.6 0 1 0 0-7.2 3.6 3.6 0 0 0 0 7.2ZM21.8 222a3.6 3.6 0 1 0 0-7.2 3.6 3.6 0 0 0 0 7.2ZM581.7 129a3.6 3.6 0 1 1 0-7 3.6 3.6 0 0 1 0 7ZM14.6 356.8a3.6 3.6 0 1 0 0-7.2 3.6 3.6 0 0 0 0 7.2ZM188.4 227.8a3.6 3.6 0 1 0 0-7.1 3.6 3.6 0 0 0 0 7.1ZM394 74.9a3.6 3.6 0 1 1 0-7.2 3.6 3.6 0 0 1 0 7.2ZM202.4 302.5a3.6 3.6 0 1 0 0-7.1 3.6 3.6 0 0 0 0 7.1ZM363.1 97.6a3.6 3.6 0 1 1 0-7.2 3.6 3.6 0 0 1 0 7.2ZM233.2 325.3a3.6 3.6 0 1 0 0-7.2 3.6 3.6 0 0 0 0 7.2ZM115.6 224.6a3.6 3.6 0 1 1 0-7.2 3.6 3.6 0 0 1 0 7.2ZM32.2 129a3.6 3.6 0 1 1 0-7 3.6 3.6 0 0 1 0 7ZM71.1 180a3.6 3.6 0 1 1 0-7 3.6 3.6 0 0 1 0 7ZM564.2 356.8a3.6 3.6 0 1 0 0-7.2 3.6 3.6 0 0 0 0 7.2ZM3.6 62.8a3.6 3.6 0 1 1 0-7.1 3.6 3.6 0 0 1 0 7.1ZM592.8 290.5a3.6 3.6 0 1 0 0-7.1 3.6 3.6 0 0 0 0 7.1ZM232.9 136.2a3.6 3.6 0 1 1 0-7.1 3.6 3.6 0 0 1 0 7.1ZM363.5 364a3.6 3.6 0 1 0 0-7.2 3.6 3.6 0 0 0 0 7.1ZM293 90.4a3.6 3.6 0 1 1 0-7.1 3.6 3.6 0 0 1 0 7.1ZM303.4 318.1a3.6 3.6 0 1 0 0-7.1 3.6 3.6 0 0 0 0 7.1ZM453.4 132.3a3.6 3.6 0 1 0 0-7.1 3.6 3.6 0 0 0 0 7.1ZM451.8 57.6a3.6 3.6 0 1 0 0-7.1 3.6 3.6 0 0 0 0 7.1ZM527.2 187.2a3.6 3.6 0 1 0 0-7.1 3.6 3.6 0 0 0 0 7.1ZM442 280.5a3.6 3.6 0 1 0 0-7.2 3.6 3.6 0 0 0 0 7.2ZM401.1 94.7a3.6 3.6 0 1 0 0-7.2 3.6 3.6 0 0 0 0 7.2ZM161.8 217.4a3.6 3.6 0 1 1 0-7.1 3.6 3.6 0 0 1 0 7.1ZM303.7 206.7a3.6 3.6 0 1 1 0-7.1 3.6 3.6 0 0 1 0 7.1ZM100.4 90.4a3.6 3.6 0 1 1 0-7.1 3.6 3.6 0 0 1 0 7.1ZM117 191.1a3.6 3.6 0 1 1 0-7.1 3.6 3.6 0 0 1 0 7.1ZM496 318.1a3.6 3.6 0 1 0 0-7.1 3.6 3.6 0 0 0 0 7.1ZM335.8 180a3.6 3.6 0 1 1 0-7 3.6 3.6 0 0 1 0 7ZM481.7 62.8a3.6 3.6 0 1 1 0-7.1 3.6 3.6 0 0 1 0 7.1ZM97.1 299.6a3.6 3.6 0 1 0 0-7.1 3.6 3.6 0 0 0 0 7.1ZM32.2 264.9a3.6 3.6 0 1 0 0-7.2 3.6 3.6 0 0 0 0 7.2ZM478.1 155a3.6 3.6 0 1 1 0-7 3.6 3.6 0 0 1 0 7ZM118.2 382.8a3.6 3.6 0 1 0 0-7.2 3.6 3.6 0 0 0 0 7.2Z"/></g></svg>